<svg xmlns="http://www.w3.org/2000/svg" xmlns:xlink="http://www.w3.org/1999/xlink" preserveAspectRatio="xMidYMid" width="13" height="13" viewBox="0 0 13 13">
  <defs>
    <style>
      .cls-1 {
        fill: #222;
        fill-rule: evenodd;
      }
    </style>
  </defs>
  <path d="M1.500,-0.000 L11.500,-0.000 C12.328,-0.000 13.000,0.671 13.000,1.500 C13.000,2.328 12.328,3.000 11.500,3.000 L1.500,3.000 C0.672,3.000 -0.000,2.328 -0.000,1.500 C-0.000,0.671 0.672,-0.000 1.500,-0.000 ZM1.500,5.000 L11.500,5.000 C12.328,5.000 13.000,5.671 13.000,6.500 C13.000,7.328 12.328,8.000 11.500,8.000 L1.500,8.000 C0.672,8.000 -0.000,7.328 -0.000,6.500 C-0.000,5.671 0.672,5.000 1.500,5.000 ZM1.500,10.000 L11.500,10.000 C12.328,10.000 13.000,10.671 13.000,11.500 C13.000,12.328 12.328,13.000 11.500,13.000 L1.500,13.000 C0.672,13.000 -0.000,12.328 -0.000,11.500 C-0.000,10.671 0.672,10.000 1.500,10.000 Z" class="cls-1"/>
</svg>
