<svg xmlns="http://www.w3.org/2000/svg" xmlns:xlink="http://www.w3.org/1999/xlink" preserveAspectRatio="xMidYMid" width="32" height="32" viewBox="0 0 32 32">
  <defs>
    <style>
      .cls-1 {
        fill: #4d4d4d;
        opacity: 0.3;
        fill-rule: evenodd;
      }
    </style>
  </defs>
  <path d="M16.000,32.000 C24.836,32.000 32.000,24.836 32.000,16.000 C32.000,7.164 24.836,-0.000 16.000,-0.000 C7.164,-0.000 -0.000,7.164 -0.000,16.000 C-0.000,24.836 7.164,32.000 16.000,32.000 ZM16.000,3.000 C23.168,3.000 29.000,8.832 29.000,16.000 C29.000,23.168 23.168,29.000 16.000,29.000 C8.832,29.000 3.000,23.168 3.000,16.000 C3.000,8.832 8.832,3.000 16.000,3.000 ZM17.486,22.605 L17.489,22.601 C17.757,22.846 18.109,23.000 18.500,23.000 C19.328,23.000 20.000,22.328 20.000,21.500 C20.000,21.062 19.810,20.672 19.511,20.398 L19.514,20.394 L14.720,16.000 L19.514,11.605 L19.511,11.601 C19.810,11.328 20.000,10.937 20.000,10.500 C20.000,9.671 19.328,9.000 18.500,9.000 C18.109,9.000 17.757,9.153 17.489,9.398 L17.486,9.394 L11.486,14.894 C11.177,15.178 11.000,15.579 11.000,16.000 C11.000,16.421 11.177,16.821 11.486,17.105 L17.486,22.605 Z" class="cls-1"/>
</svg>
