<svg xmlns="http://www.w3.org/2000/svg" xmlns:xlink="http://www.w3.org/1999/xlink" preserveAspectRatio="xMidYMid" width="9" height="14" viewBox="0 0 9 14">
  <defs>
    <style>
      .cls-1 {
        fill: #4d4d4d;
        opacity: 0.3;
        fill-rule: evenodd;
      }
    </style>
  </defs>
  <path d="M2.514,13.605 L2.511,13.601 C2.243,13.846 1.890,13.999 1.500,13.999 C0.672,13.999 -0.000,13.327 -0.000,12.500 C-0.000,12.062 0.190,11.671 0.489,11.398 L0.486,11.394 L5.280,6.999 L0.486,2.605 L0.489,2.601 C0.190,2.328 -0.000,1.937 -0.000,1.499 C-0.000,0.671 0.672,-0.001 1.500,-0.001 C1.890,-0.001 2.243,0.153 2.511,0.398 L2.514,0.394 L8.514,5.894 C8.823,6.178 9.000,6.579 9.000,6.999 C9.000,7.420 8.823,7.821 8.514,8.105 L2.514,13.605 Z" class="cls-1"/>
</svg>
