<svg xmlns="http://www.w3.org/2000/svg" xmlns:xlink="http://www.w3.org/1999/xlink" preserveAspectRatio="xMidYMid" width="9" height="14" viewBox="0 0 9 14">
  <defs>
    <style>
      .cls-1 {
        fill: #4d4d4d;
        opacity: 0.3;
        fill-rule: evenodd;
      }
    </style>
  </defs>
  <path d="M6.486,13.605 L6.489,13.601 C6.757,13.846 7.109,13.999 7.500,13.999 C8.328,13.999 9.000,13.327 9.000,12.500 C9.000,12.062 8.810,11.671 8.511,11.398 L8.514,11.394 L3.720,6.999 L8.514,2.605 L8.511,2.601 C8.810,2.328 9.000,1.937 9.000,1.499 C9.000,0.671 8.328,-0.001 7.500,-0.001 C7.109,-0.001 6.757,0.153 6.489,0.398 L6.486,0.394 L0.486,5.894 C0.177,6.178 0.000,6.579 0.000,6.999 C0.000,7.420 0.177,7.821 0.486,8.105 L6.486,13.605 Z" class="cls-1"/>
</svg>
