<svg xmlns="http://www.w3.org/2000/svg" xmlns:xlink="http://www.w3.org/1999/xlink" preserveAspectRatio="xMidYMid" width="9.031" height="6.25" viewBox="0 0 9.031 6.25">
  <defs>
    <style>
      .cls-1 {
        fill: #d5d5d5;
        fill-rule: evenodd;
      }
    </style>
  </defs>
  <path d="M8.047,2.120 L4.097,2.120 L4.097,0.999 C4.097,0.728 3.988,0.476 3.804,0.292 C3.713,0.200 3.603,0.126 3.479,0.075 C3.106,-0.080 2.676,0.006 2.390,0.292 L0.268,2.413 C-0.122,2.804 -0.122,3.437 0.268,3.827 L2.390,5.948 C2.676,6.234 3.106,6.319 3.479,6.165 C3.853,6.010 4.097,5.646 4.097,5.241 L4.097,4.120 L8.047,4.120 C8.599,4.120 9.046,3.672 9.046,3.120 C9.046,2.567 8.599,2.120 8.047,2.120 Z" class="cls-1"/>
</svg>
