<svg xmlns="http://www.w3.org/2000/svg" xmlns:xlink="http://www.w3.org/1999/xlink" preserveAspectRatio="xMidYMid" width="13" height="11" viewBox="0 0 13 11">
  <defs>
    <style>
      .cls-1 {
        fill: #1f4ba5;
        fill-rule: evenodd;
      }
    </style>
  </defs>
  <path d="M13.000,6.999 L13.000,8.999 C13.000,10.104 12.104,10.999 11.000,10.999 L9.000,10.999 C7.895,10.999 7.000,10.104 7.000,8.999 L7.000,6.999 L7.000,4.999 C7.000,2.238 9.238,-0.001 12.000,-0.001 C12.552,-0.001 13.000,0.447 13.000,0.999 C13.000,1.552 12.552,1.999 12.000,1.999 C10.343,1.999 9.000,3.342 9.000,4.999 L11.000,4.999 C12.104,4.999 13.000,5.894 13.000,6.999 ZM4.000,10.999 L2.000,10.999 C0.895,10.999 -0.000,10.104 -0.000,8.999 L-0.000,6.999 L-0.000,4.999 C-0.000,2.238 2.238,-0.001 5.000,-0.001 C5.552,-0.001 6.000,0.447 6.000,0.999 C6.000,1.552 5.552,1.999 5.000,1.999 C3.343,1.999 2.000,3.342 2.000,4.999 L4.000,4.999 C5.104,4.999 6.000,5.894 6.000,6.999 L6.000,8.999 C6.000,10.104 5.104,10.999 4.000,10.999 Z" class="cls-1"/>
</svg>
