<svg xmlns="http://www.w3.org/2000/svg" xmlns:xlink="http://www.w3.org/1999/xlink" preserveAspectRatio="xMidYMid" width="16.031" height="13.875" viewBox="0 0 16.031 13.875">
  <defs>
    <style>
      .cls-1 {
        fill: #d5d5d5;
        fill-rule: evenodd;
      }
    </style>
  </defs>
  <path d="M15.031,9.000 L14.031,9.000 L14.031,10.000 C14.031,10.552 13.583,11.000 13.031,11.000 C12.479,11.000 12.031,10.552 12.031,10.000 L12.031,9.000 L11.031,9.000 C10.479,9.000 10.031,8.552 10.031,8.000 C10.031,7.447 10.479,7.000 11.031,7.000 L12.031,7.000 L12.031,6.000 C12.031,5.448 12.479,5.000 13.031,5.000 C13.583,5.000 14.031,5.448 14.031,6.000 L14.031,7.000 L15.031,7.000 C15.583,7.000 16.031,7.447 16.031,8.000 C16.031,8.552 15.583,9.000 15.031,9.000 ZM12.565,3.047 C12.486,2.936 12.403,2.828 12.305,2.730 C11.838,2.263 11.218,2.006 10.558,2.006 C9.935,2.006 9.336,2.237 8.872,2.656 L7.531,3.994 L6.190,2.656 C5.726,2.237 5.127,2.006 4.504,2.006 C3.844,2.006 3.224,2.263 2.756,2.730 C2.284,3.203 2.025,3.830 2.025,4.498 C2.025,5.166 2.284,5.793 2.750,6.259 L7.531,10.994 L8.686,9.850 C9.063,10.327 9.577,10.681 10.174,10.860 C10.201,10.948 10.219,11.040 10.253,11.124 L7.506,13.874 L1.317,7.682 C-0.440,5.924 -0.440,3.075 1.317,1.318 C3.020,-0.385 5.739,-0.422 7.506,1.174 C9.272,-0.422 11.991,-0.385 13.694,1.318 C14.368,1.992 14.778,2.827 14.935,3.699 C14.416,3.269 13.758,3.000 13.031,3.000 C12.872,3.000 12.718,3.023 12.565,3.047 Z" class="cls-1"/>
</svg>
