<svg xmlns="http://www.w3.org/2000/svg" xmlns:xlink="http://www.w3.org/1999/xlink" preserveAspectRatio="xMidYMid" width="15" height="13.875" viewBox="0 0 15 13.875">
  <defs>
    <style>
      .cls-1 {
        fill: #222;
        fill-rule: evenodd;
      }
    </style>
  </defs>
  <path d="M13.694,7.682 L7.506,13.874 L1.317,7.682 C-0.440,5.924 -0.440,3.075 1.317,1.318 C3.020,-0.385 5.739,-0.422 7.506,1.175 C9.272,-0.422 11.991,-0.385 13.694,1.318 C15.451,3.075 15.451,5.924 13.694,7.682 ZM12.305,2.730 C11.838,2.263 11.218,2.006 10.558,2.006 C9.935,2.006 9.336,2.237 8.872,2.656 L7.531,3.994 L6.190,2.656 C5.726,2.237 5.127,2.006 4.504,2.006 C3.844,2.006 3.224,2.263 2.756,2.730 C2.284,3.203 2.025,3.830 2.025,4.498 C2.025,5.166 2.284,5.793 2.750,6.258 L7.531,10.994 L12.305,6.265 C12.778,5.793 13.037,5.166 13.037,4.498 C13.037,3.830 12.778,3.203 12.305,2.730 Z" class="cls-1"/>
</svg>
