<svg xmlns="http://www.w3.org/2000/svg" xmlns:xlink="http://www.w3.org/1999/xlink" preserveAspectRatio="xMidYMid" width="16" height="16" viewBox="0 0 16 16">
  <defs>
    <style>
      .cls-1 {
        fill: #222;
        fill-rule: evenodd;
      }
    </style>
  </defs>
  <path d="M15.717,15.717 C15.327,16.108 14.694,16.108 14.303,15.717 L11.154,12.567 C8.412,14.617 4.524,14.423 2.032,11.932 C-0.701,9.198 -0.701,4.766 2.032,2.032 C4.766,-0.702 9.198,-0.702 11.932,2.032 C14.423,4.524 14.618,8.412 12.568,11.153 L15.717,14.303 C16.108,14.693 16.108,15.327 15.717,15.717 ZM10.518,3.446 C8.565,1.494 5.399,1.494 3.447,3.446 C1.494,5.399 1.494,8.565 3.447,10.517 C5.399,12.470 8.565,12.470 10.518,10.517 C12.470,8.565 12.470,5.399 10.518,3.446 Z" class="cls-1"/>
</svg>
