<svg xmlns="http://www.w3.org/2000/svg" xmlns:xlink="http://www.w3.org/1999/xlink" preserveAspectRatio="xMidYMid" width="6" height="4" viewBox="0 0 6 4">
  <defs>
    <style>
      .cls-1 {
        fill: #1f4ba5;
        fill-rule: evenodd;
      }
    </style>
  </defs>
  <path d="M0.169,1.117 L0.171,1.116 C0.066,0.997 -0.000,0.840 -0.000,0.666 C-0.000,0.298 0.288,-0.000 0.643,-0.000 C0.830,-0.000 0.998,0.084 1.115,0.217 L1.117,0.216 L3.000,2.346 L4.883,0.216 L4.885,0.217 C5.002,0.084 5.170,-0.000 5.357,-0.000 C5.712,-0.000 6.000,0.298 6.000,0.666 C6.000,0.840 5.934,0.997 5.829,1.116 L5.831,1.117 L3.474,3.784 C3.352,3.921 3.180,4.000 3.000,4.000 C2.820,4.000 2.648,3.921 2.526,3.784 L0.169,1.117 Z" class="cls-1"/>
</svg>
