<svg xmlns="http://www.w3.org/2000/svg" xmlns:xlink="http://www.w3.org/1999/xlink" preserveAspectRatio="xMidYMid" width="32" height="32" viewBox="0 0 32 32">
  <defs>
    <style>
      .cls-1 {
        fill: #4d4d4d;
        opacity: 0.3;
        fill-rule: evenodd;
      }
    </style>
  </defs>
  <path d="M16.000,32.000 C7.164,32.000 -0.000,24.836 -0.000,16.000 C-0.000,7.164 7.164,-0.000 16.000,-0.000 C24.836,-0.000 32.000,7.164 32.000,16.000 C32.000,24.836 24.836,32.000 16.000,32.000 ZM16.000,3.000 C8.832,3.000 3.000,8.832 3.000,16.000 C3.000,23.168 8.832,29.000 16.000,29.000 C23.168,29.000 29.000,23.168 29.000,16.000 C29.000,8.832 23.168,3.000 16.000,3.000 ZM14.514,22.605 L14.511,22.601 C14.243,22.846 13.891,23.000 13.500,23.000 C12.672,23.000 12.000,22.328 12.000,21.500 C12.000,21.062 12.190,20.672 12.489,20.398 L12.486,20.394 L17.280,16.000 L12.486,11.605 L12.489,11.601 C12.190,11.328 12.000,10.937 12.000,10.500 C12.000,9.671 12.672,9.000 13.500,9.000 C13.891,9.000 14.243,9.153 14.511,9.398 L14.514,9.394 L20.514,14.894 C20.823,15.178 21.000,15.579 21.000,16.000 C21.000,16.421 20.823,16.821 20.514,17.105 L14.514,22.605 Z" class="cls-1"/>
</svg>
