<svg xmlns="http://www.w3.org/2000/svg" xmlns:xlink="http://www.w3.org/1999/xlink" preserveAspectRatio="xMidYMid" width="16" height="16" viewBox="0 0 16 16">
  <defs>
    <style>
      .cls-1 {
        fill: #222;
        fill-rule: evenodd;
      }
    </style>
  </defs>
  <path d="M14.000,16.000 L2.000,16.000 C0.895,16.000 -0.000,15.104 -0.000,14.000 L1.000,8.000 C1.260,6.960 1.895,6.000 3.000,6.000 L4.000,6.000 L4.000,4.000 C4.000,1.791 5.791,-0.000 8.000,-0.000 C10.209,-0.000 12.000,1.791 12.000,4.000 L12.000,6.000 L13.000,6.000 C14.105,6.000 15.000,6.895 15.000,8.000 L16.000,14.000 C16.000,15.104 15.105,16.000 14.000,16.000 ZM10.000,4.000 C10.000,2.895 9.105,2.000 8.000,2.000 C6.895,2.000 6.000,2.895 6.000,4.000 L6.000,6.000 L10.000,6.000 L10.000,4.000 ZM13.012,8.000 L12.000,8.000 L12.000,9.000 C12.000,9.552 11.552,10.000 11.000,10.000 C10.448,10.000 10.000,9.552 10.000,9.000 L10.000,8.000 L6.000,8.000 L6.000,9.000 C6.000,9.552 5.552,10.000 5.000,10.000 C4.448,10.000 4.000,9.552 4.000,9.000 L4.000,8.000 L2.988,8.000 L2.001,14.000 L13.991,14.000 L13.012,8.000 Z" class="cls-1"/>
</svg>
